PathFileType	4	(X/Y/Z) S1_Point1_Trial1.trc
DataRate	CameraRate	NumFrames	NumMarkers	Units	OrigDataRate	OrigDataStartFrame	OrigNumFrames
1000.00	1000.00	9	43	m	1000.00	3343	5348
Frame#	Time	L.FootHeel			L.AnkleLateral			L.AnkleMedial			L.ToeLateral			L.ToeMedial			L.WristMedial			L.WristLateral			L.ShoulderFront			L.ShoulderRear			L.KneeLateral			L.KneeMedial			L.LowerArmLateral			L.LowerArmMedial			R.FootHeel			R.AnkleLateral			R.AnkleMedial			R.ToeLateral			R.ToeMedial			R.WristMedial			R.WristLateral			R.ShoulderFront			R.ShoulderRear			R.KneeLateral			R.KneeMedial			R.LowerArmLateral			R.LowerArmMedial			LASIS			LPSIS			RASIS			RPSIS			C7			CLAV			LACR			RACR			Head_Top			R.UpparArm			L.UpparArm			R.Thigh			L.Thigh			R.Shank			L.Shank			RFAsuperior			LFAsuperior			
		X1	Y1	Z1	X2	Y2	Z2	X3	Y3	Z3	X4	Y4	Z4	X5	Y5	Z5	X6	Y6	Z6	X7	Y7	Z7	X8	Y8	Z8	X9	Y9	Z9	X10	Y10	Z10	X11	Y11	Z11	X12	Y12	Z12	X13	Y13	Z13	X14	Y14	Z14	X15	Y15	Z15	X16	Y16	Z16	X17	Y17	Z17	X18	Y18	Z18	X19	Y19	Z19	X20	Y20	Z20	X21	Y21	Z21	X22	Y22	Z22	X23	Y23	Z23	X24	Y24	Z24	X25	Y25	Z25	X26	Y26	Z26	X27	Y27	Z27	X28	Y28	Z28	X29	Y29	Z29	X30	Y30	Z30	X31	Y31	Z31	X32	Y32	Z32	X33	Y33	Z33	X34	Y34	Z34	X35	Y35	Z35	X36	Y36	Z36	X37	Y37	Z37	X38	Y38	Z38	X39	Y39	Z39	X40	Y40	Z40	X41	Y41	Z41	X42	Y42	Z42	X43	Y43	Z43
3342	3.342	-0.316435	0.031276	-0.035655	-0.261031	0.074305	-0.068203	-0.24878	0.055471	-0.023042	-0.192461	-0.012749	-0.160779	-0.11559	0.024634	-0.12162	-0.140543	0.738453	-0.126794	-0.155288	0.746701	-0.145068	-0.24569	1.229413	-0.127342	-0.342623	1.230512	-0.106738	-0.244442	0.443921	-0.01882	-0.280601	0.44099	0.05199	-0.210029	0.958411	-0.159489	-0.242325	0.938267	-0.12434	-0.272735	0.049002	0.198506	-0.213044	0.077365	0.196758	-0.226033	0.086095	0.157997	-0.089584	0.018781	0.226405	-0.049927	0.02981	0.177164	0.142334	1.566333	0.287773	0.108592	1.575816	0.332537	-0.262073	1.339075	0.101521	-0.331842	1.282021	0.093157	-0.192922	0.544163	0.199372	-0.251037	0.568974	0.141262	-0.071276	1.428713	0.237436	-0.032991	1.400421	0.233834	-0.12819	0.87535	-0.050191	-0.27941	0.90948	0.007284	-0.10857	0.902379	0.163406	-0.254173	0.920331	0.152041	-0.305327	1.349083	-0.026808	-0.242024	1.290164	-0.02255	-0.269641	1.278494	-0.123767	-0.253315	1.326066	0.083341	-0.282764	1.574751	-0.013398	-0.151817	1.400224	0.249188	-0.262539	1.070524	-0.189711	-0.140515	0.606117	0.226948	-0.234886	0.522086	-0.073671	-0.217163	0.300219	0.243936	-0.257736	0.247293	-0.072863	0.005009	1.499115	0.265023	-0.19842	0.910594	-0.148521
3343	3.343	-0.316442	0.031283	-0.035663	-0.261032	0.074309	-0.068205	-0.248785	0.055472	-0.023045	-0.192465	-0.012747	-0.160781	-0.115592	0.024628	-0.121617	-0.140562	0.738432	-0.126773	-0.155313	0.74668	-0.145041	-0.245734	1.229359	-0.127284	-0.342662	1.230429	-0.106654	-0.244439	0.443925	-0.018797	-0.280604	0.440998	0.052009	-0.210058	0.958384	-0.159462	-0.242361	0.938247	-0.124315	-0.272735	0.049001	0.198503	-0.213045	0.077367	0.196761	-0.226034	0.086101	0.158001	-0.089583	0.018783	0.226401	-0.049926	0.02982	0.177162	0.142345	1.566317	0.287757	0.108611	1.575797	0.332528	-0.262091	1.339034	0.101574	-0.331844	1.281958	0.093234	-0.192919	0.544166	0.199397	-0.251029	0.56898	0.141283	-0.071272	1.428716	0.237487	-0.032984	1.400424	0.233916	-0.128175	0.87537	-0.05016	-0.2794	0.909482	0.007311	-0.108563	0.902399	0.163438	-0.254169	0.920333	0.152068	-0.305382	1.349018	-0.026745	-0.242059	1.290119	-0.022498	-0.269699	1.278432	-0.123707	-0.253334	1.326027	0.083393	-0.282791	1.574735	-0.013376	-0.151819	1.40023	0.249199	-0.262539	1.070512	-0.189683	-0.14051	0.606118	0.226974	-0.234877	0.522088	-0.07365	-0.217161	0.300216	0.243947	-0.257732	0.247296	-0.072856	0.00501	1.499117	0.265017	-0.198454	0.910571	-0.148465
3344	3.344	-0.31645	0.031293	-0.035671	-0.261034	0.074314	-0.068208	-0.248792	0.055475	-0.023048	-0.192469	-0.012746	-0.160783	-0.115595	0.024621	-0.121612	-0.140584	0.73841	-0.126751	-0.15534	0.74666	-0.145014	-0.245769	1.229316	-0.127232	-0.342693	1.230363	-0.106582	-0.244435	0.443929	-0.018776	-0.280608	0.441004	0.052028	-0.210085	0.958361	-0.159429	-0.242396	0.93823	-0.124286	-0.272735	0.049	0.198501	-0.213046	0.077368	0.196764	-0.226035	0.086107	0.158004	-0.089583	0.018784	0.226398	-0.049926	0.029829	0.177162	0.142356	1.566302	0.287744	0.108629	1.57578	0.33252	-0.262106	1.339001	0.101622	-0.331846	1.281907	0.093301	-0.192915	0.544169	0.19942	-0.251017	0.568986	0.1413	-0.071267	1.428718	0.237535	-0.032978	1.400425	0.233991	-0.128157	0.875395	-0.050129	-0.279389	0.909484	0.007337	-0.108557	0.902422	0.16347	-0.254164	0.920337	0.152096	-0.305426	1.348966	-0.026688	-0.242088	1.290083	-0.022451	-0.269746	1.278383	-0.123653	-0.253349	1.325995	0.08344	-0.282816	1.574722	-0.013354	-0.151821	1.400235	0.249211	-0.262539	1.070499	-0.189655	-0.140504	0.606118	0.227001	-0.234868	0.52209	-0.07363	-0.217158	0.300213	0.243958	-0.257727	0.247298	-0.072849	0.005012	1.499119	0.265012	-0.198486	0.91055	-0.148411
3345	3.345	-0.316459	0.031303	-0.035679	-0.261036	0.07432	-0.068212	-0.248799	0.055479	-0.023051	-0.192472	-0.012745	-0.160782	-0.115598	0.024613	-0.121606	-0.140611	0.738387	-0.126728	-0.155371	0.746639	-0.144987	-0.245792	1.22929	-0.12719	-0.342713	1.230323	-0.106527	-0.244432	0.443932	-0.018755	-0.280611	0.441007	0.052044	-0.210107	0.958343	-0.159388	-0.242426	0.938218	-0.124249	-0.272735	0.048998	0.1985	-0.213048	0.077368	0.196766	-0.226035	0.086111	0.158008	-0.089583	0.018785	0.226397	-0.049925	0.029837	0.177163	0.142368	1.56629	0.287734	0.108646	1.575765	0.332515	-0.262115	1.338981	0.101663	-0.331848	1.281875	0.093353	-0.192908	0.544172	0.199442	-0.251	0.56899	0.141312	-0.071264	1.428719	0.237572	-0.032974	1.400424	0.234052	-0.128138	0.875421	-0.050097	-0.279378	0.909487	0.007364	-0.108549	0.902448	0.163503	-0.254159	0.920341	0.152124	-0.305454	1.348934	-0.026641	-0.242106	1.290062	-0.022411	-0.269776	1.278354	-0.123609	-0.253359	1.325975	0.08348	-0.282837	1.574712	-0.013336	-0.151823	1.40024	0.249224	-0.262541	1.070487	-0.189627	-0.140497	0.606119	0.227029	-0.234858	0.522093	-0.073609	-0.217156	0.30021	0.243969	-0.257723	0.247301	-0.072841	0.005016	1.49912	0.265009	-0.198515	0.910531	-0.14836
3346	3.346	-0.316468	0.031316	-0.035687	-0.261038	0.074327	-0.068216	-0.248806	0.055485	-0.023054	-0.192476	-0.012745	-0.16078	-0.115601	0.024606	-0.121598	-0.140644	0.738364	-0.126703	-0.155407	0.746618	-0.144959	-0.245798	1.229286	-0.127161	-0.342719	1.230316	-0.106495	-0.244427	0.443932	-0.018737	-0.280612	0.441006	0.052059	-0.210124	0.958332	-0.159337	-0.242451	0.938212	-0.124203	-0.272736	0.048996	0.1985	-0.213049	0.077367	0.196769	-0.226036	0.086113	0.158011	-0.089584	0.018785	0.226398	-0.049925	0.029841	0.177165	0.14238	1.566279	0.287732	0.10866	1.575756	0.332514	-0.262118	1.338976	0.101693	-0.331849	1.281869	0.093384	-0.192899	0.544175	0.199462	-0.250977	0.568993	0.141318	-0.071261	1.428717	0.237596	-0.032972	1.400419	0.234089	-0.12812	0.875447	-0.050066	-0.279366	0.909489	0.007392	-0.108541	0.902476	0.163535	-0.254154	0.920346	0.152152	-0.305461	1.348929	-0.02661	-0.242111	1.290058	-0.022381	-0.269783	1.27835	-0.123579	-0.253362	1.325971	0.08351	-0.282851	1.574707	-0.013323	-0.151824	1.400245	0.249236	-0.262545	1.070475	-0.1896	-0.14049	0.606119	0.227057	-0.234848	0.522095	-0.073588	-0.217154	0.300208	0.24398	-0.257718	0.247303	-0.072834	0.005023	1.49912	0.265008	-0.198539	0.910513	-0.148314
3347	3.347	-0.316476	0.03133	-0.035695	-0.26104	0.074335	-0.06822	-0.248814	0.055493	-0.023056	-0.192478	-0.012747	-0.160776	-0.115603	0.024598	-0.121589	-0.140687	0.738339	-0.126675	-0.155451	0.746596	-0.144929	-0.245783	1.229309	-0.127147	-0.342705	1.230351	-0.106492	-0.24442	0.443931	-0.018722	-0.280611	0.440999	0.052072	-0.210133	0.958328	-0.159273	-0.24247	0.938214	-0.124145	-0.272737	0.048993	0.198501	-0.213051	0.077366	0.196773	-0.226038	0.086112	0.158014	-0.089585	0.018785	0.226402	-0.049926	0.029843	0.17717	0.142393	1.566272	0.287738	0.108671	1.575752	0.332518	-0.262112	1.338992	0.101709	-0.33185	1.281894	0.093391	-0.192886	0.544176	0.199479	-0.250946	0.568994	0.141317	-0.071259	1.428711	0.237601	-0.032972	1.40041	0.234097	-0.128102	0.875472	-0.050035	-0.279355	0.90949	0.007419	-0.108533	0.902504	0.163567	-0.254148	0.920351	0.15218	-0.305441	1.348955	-0.026598	-0.242098	1.290076	-0.022365	-0.269762	1.278376	-0.123566	-0.253356	1.325987	0.083526	-0.282857	1.574708	-0.013316	-0.151824	1.400249	0.249249	-0.262552	1.070463	-0.189572	-0.140483	0.60612	0.227085	-0.234837	0.522097	-0.073566	-0.217151	0.300205	0.243991	-0.257714	0.247306	-0.072826	0.005033	1.499119	0.265011	-0.198559	0.910498	-0.148272
3348	3.348	-0.316485	0.031345	-0.035702	-0.261042	0.074343	-0.068224	-0.248821	0.055502	-0.023059	-0.19248	-0.012749	-0.160771	-0.115605	0.024591	-0.121578	-0.140739	0.738313	-0.126645	-0.1555	0.746574	-0.144899	-0.245748	1.229356	-0.127149	-0.342675	1.230422	-0.106514	-0.244412	0.443927	-0.018709	-0.280606	0.440986	0.052083	-0.210137	0.958332	-0.159198	-0.242483	0.938221	-0.124077	-0.272739	0.04899	0.198504	-0.213053	0.077363	0.196776	-0.226039	0.086109	0.158017	-0.089586	0.018784	0.226409	-0.049926	0.029843	0.177177	0.142405	1.566269	0.287751	0.108678	1.575755	0.332526	-0.262099	1.339026	0.101713	-0.33185	1.281946	0.093375	-0.192871	0.544177	0.199494	-0.250909	0.568993	0.14131	-0.071258	1.428704	0.237589	-0.032976	1.400397	0.234076	-0.128086	0.875495	-0.050004	-0.279345	0.909491	0.007447	-0.108524	0.902532	0.163597	-0.254141	0.920358	0.152209	-0.305397	1.34901	-0.026603	-0.242071	1.290114	-0.022361	-0.269716	1.278429	-0.123569	-0.253342	1.32602	0.083531	-0.282855	1.574714	-0.013316	-0.151823	1.400253	0.249262	-0.262562	1.070451	-0.189545	-0.140475	0.606121	0.227114	-0.234827	0.5221	-0.073543	-0.217149	0.300203	0.244002	-0.25771	0.247308	-0.072818	0.005046	1.499117	0.265016	-0.198574	0.910484	-0.148236
3349	3.349	-0.316492	0.03136	-0.035708	-0.261043	0.074351	-0.068228	-0.248828	0.055512	-0.02306	-0.192482	-0.012752	-0.160764	-0.115606	0.024584	-0.121568	-0.140797	0.738286	-0.126611	-0.155555	0.746552	-0.144867	-0.245701	1.22942	-0.127161	-0.342633	1.230518	-0.106555	-0.244402	0.443921	-0.018697	-0.280599	0.44097	0.052092	-0.210136	0.958341	-0.159117	-0.242492	0.938233	-0.124003	-0.27274	0.048986	0.198506	-0.213054	0.077359	0.196779	-0.22604	0.086104	0.15802	-0.089588	0.018783	0.226416	-0.049927	0.02984	0.177185	0.142418	1.566267	0.287771	0.108684	1.575761	0.332539	-0.262081	1.339072	0.101707	-0.33185	1.282018	0.093342	-0.192854	0.544178	0.199508	-0.250868	0.568991	0.141299	-0.071257	1.428695	0.237563	-0.032981	1.400383	0.234032	-0.128072	0.875515	-0.049974	-0.279336	0.909492	0.007476	-0.108515	0.902558	0.163627	-0.254134	0.920364	0.152237	-0.305337	1.349085	-0.026621	-0.242033	1.290166	-0.022366	-0.269652	1.2785	-0.123583	-0.253323	1.326064	0.083526	-0.282846	1.574724	-0.013321	-0.151821	1.400256	0.249275	-0.262574	1.07044	-0.189518	-0.140466	0.606121	0.227144	-0.234816	0.522102	-0.07352	-0.217146	0.3002	0.244013	-0.257707	0.247311	-0.072809	0.005062	1.499114	0.265023	-0.198587	0.910473	-0.148204
3350	3.35	-0.316499	0.031374	-0.035712	-0.261044	0.074359	-0.068232	-0.248834	0.055522	-0.023062	-0.192482	-0.012755	-0.160757	-0.115607	0.024578	-0.121557	-0.14086	0.73826	-0.126576	-0.155613	0.746529	-0.144834	-0.245645	1.229492	-0.127179	-0.342585	1.230626	-0.106607	-0.244391	0.443914	-0.018687	-0.280589	0.44095	0.052101	-0.210133	0.958352	-0.159033	-0.242498	0.938248	-0.123926	-0.272741	0.048981	0.198509	-0.213055	0.077356	0.196781	-0.22604	0.086098	0.158021	-0.089589	0.018782	0.226424	-0.049927	0.029837	0.177193	0.142432	1.566266	0.287796	0.108688	1.57577	0.332554	-0.262061	1.339124	0.101696	-0.33185	1.282099	0.0933	-0.192835	0.544178	0.19952	-0.250824	0.568989	0.141285	-0.071258	1.428687	0.237527	-0.032988	1.400369	0.233973	-0.128059	0.875531	-0.049945	-0.279327	0.909491	0.007504	-0.108505	0.902582	0.163656	-0.254128	0.920369	0.152265	-0.305268	1.349169	-0.026646	-0.24199	1.290224	-0.022376	-0.269578	1.278581	-0.123604	-0.253302	1.326115	0.083517	-0.282834	1.574738	-0.013329	-0.151819	1.400259	0.249288	-0.262587	1.070428	-0.189491	-0.140457	0.606122	0.227173	-0.234805	0.522104	-0.073496	-0.217144	0.300198	0.244024	-0.257703	0.247313	-0.0728	0.005079	1.499111	0.265031	-0.198599	0.910462	-0.148177
